<?xml version="1.0" encoding="iso-8859-1"?>
<!-- Uploaded to: SVG Repo, www.svgrepo.com, Generator: SVG Repo Mixer Tools -->
<svg version="1.1" id="Layer_1" xmlns="http://www.w3.org/2000/svg" xmlns:xlink="http://www.w3.org/1999/xlink" 
	 viewBox="0 0 512 512" xml:space="preserve">
<polygon style="fill:#3FA9F5;" points="512,353.959 512,442.775 0,442.775 0,353.959 94.041,353.959 156.735,353.959 
	355.265,353.959 417.959,353.959 "/>
<path style="fill:#C69C6D;" d="M512,160.653v94.041h-10.449c-47.334,7.523-83.592,49.737-83.592,99.265h-62.694
	c0-54.857-44.408-99.265-99.265-99.265s-99.265,44.408-99.265,99.265H94.041c0-49.528-36.258-91.742-83.592-99.265H0v-94.041H512z"
	/>
<rect x="10.449" y="118.857" style="fill:#8C6239;" width="491.102" height="41.796"/>
<path d="M500.32,246.954c-48.859,7.766-86.276,49.691-89.885,99.168h-47.62c-4.027-55.411-50.393-99.265-106.814-99.265
	s-102.788,43.854-106.814,99.265h-47.622c-3.61-49.478-41.027-91.402-89.886-99.168l-0.611-0.097H0v15.673h9.817
	c41.042,6.812,72.5,41.953,76.045,83.592H0v15.673h512v-15.673h-85.861c3.544-41.639,35.003-76.78,76.045-83.592H512v-15.673
	h-11.069L500.32,246.954z M256,262.531c47.774,0,87.101,36.833,91.089,83.592H164.911C168.899,299.363,208.226,262.531,256,262.531z
	"/>
<rect x="240.327" y="194.612" width="31.347" height="15.673"/>
<rect x="323.918" y="194.612" width="31.347" height="15.673"/>
<rect x="407.51" y="194.612" width="31.347" height="15.673"/>
<rect x="156.735" y="194.612" width="31.347" height="15.673"/>
<rect x="73.143" y="194.612" width="31.347" height="15.673"/>
<path d="M512,84.898V69.224H0v15.673h39.184v26.122H2.612v41.796H0v15.673h512v-15.673h-2.612V111.02h-36.571V84.898H512z
	 M263.837,111.02V84.898h88.816v26.122H263.837z M159.347,111.02V84.898h88.816v26.122H159.347z M54.857,84.898h88.816v26.122
	H54.857V84.898z M493.714,152.816H18.286v-26.122h475.429V152.816z M457.143,111.02h-88.816V84.898h88.816V111.02z"/>
<rect x="198.531" y="398.367" width="52.245" height="15.673"/>
<rect x="266.449" y="398.367" width="20.898" height="15.673"/>
<rect x="391.837" y="387.918" width="52.245" height="15.673"/>
<rect x="355.265" y="387.918" width="20.898" height="15.673"/>
<rect x="78.367" y="387.918" width="52.245" height="15.673"/>
<rect x="41.796" y="387.918" width="20.898" height="15.673"/>
</svg>